<svg xmlns="http://www.w3.org/2000/svg" xml:space="preserve" width="60" height="60" viewBox="0 0 15.875 15.875">

  <style>
    .logo-shape {
      fill: #ffffff; 
    }

    @media (prefers-color-scheme: light) {
      .logo-shape {
        fill: #1a1a1a; 
      }
    }
  </style>
  <g style="display:inline">
    <path class="logo-shape" d="M-462.499 1007.96c-.05 0-.098 0-.148.01-.098 0-.373.02-.77.1 1.162.37 1.734 1.24 1.878 1.985a3.4 3.4 0 0 1 .033 1.017 7 7 0 0 1-.11.904 12 12 0 0 1-.592 2.06c-.125.33-.27.686-.433 1.044-.237.542-.521 1.08-.848 1.572-.021.032-.046.056-.068.088-.18.264-.368.5-.559.72a9.6 9.6 0 0 1-.996 1.03l-.12.114a.3.3 0 0 1-.08.054 9 9 0 0 1-.508.39c-.764.544-1.444.84-2.125.95-.34.055-.692.071-1.025-.019-.334-.09-.65-.31-.825-.666-.349-.713-.216-1.786.193-2.893.362-.979.962-1.953 1.603-2.713q.1-.118.2-.229l.055-.06c.048-.053.096-.092.145-.142.046-.047.084-.088.135-.136.01-.01.026-.021.036-.031.253-.242.506-.462.757-.648q.216-.168.447-.334c.945-.673 2.074-1.226 2.797-1.235q.391-.001.688.034c.02-.19.023-.42-.019-.637-.085-.442-.248-.835-1.146-1.07-.246-.063-1.055-.119-2.016.21-.64.22-1.363.598-2.1 1.239a13.1 13.1 0 0 0-2.976 4.312l-.068.212c-.395 1.265-.72 2.847-.382 4.029.339 1.182 1.317 2.094 2.645 2.211 1.327.118 3.152-.61 4.61-1.838s2.588-2.96 3.278-4.7c.51-1.287.78-2.595.857-3.62-.002-.598-.017-1.167-.116-1.58a1.9 1.9 0 0 0-.594-1.024c-.235-.21-.539-.379-.874-.547a2.3 2.3 0 0 0-.859-.165zm3.311 4.012c-.13.999-.41 2.13-.86 3.267-.74 1.865-1.938 3.716-3.543 5.068s-3.578 2.205-5.292 2.054a3.9 3.9 0 0 1-2.56-1.268q.028.072.058.142c.272.532.598.98 1.019 1.302.993.757 2.687.956 4.475.314 1.788-.643 3.695-2.148 4.918-3.807s1.802-3.504 1.926-4.93a7 7 0 0 0-.14-2.142" style="baseline-shift:baseline;display:inline;overflow:visible;opacity:1;vector-effect:none;fill:#fff;stroke-width:1;stroke-linecap:round;stroke-linejoin:round;stop-color:#000;stop-opacity:1" transform="translate(473.24 -1007.66)"/>
  </g>
</svg>

