<svg xmlns="http://www.w3.org/2000/svg" xml:space="preserve" width="404.995" height="492.314" viewBox="0 0 107.155 130.258"><g style="display:inline"><path d="M-406.373 953.467q-.633.01-1.26.081c-.835.031-3.186.177-6.561.863 9.902 3.142 14.778 10.562 16.007 16.92.644 3.329.527 6.353.276 8.669v.009a62 62 0 0 1-.93 7.71c-.827 4.514-2.346 10.363-5.054 17.562a143 143 0 0 1-3.693 8.903c-2.017 4.62-4.442 9.212-7.229 13.404-.18.27-.395.479-.578.746-1.537 2.251-3.138 4.26-4.767 6.146-2.764 3.258-5.615 6.267-8.49 8.77l-1.031.979a2.7 2.7 0 0 1-.675.465 79 79 0 0 1-4.33 3.32c-6.519 4.644-12.318 7.163-18.119 8.105-2.9.471-5.904.605-8.746-.166-2.842-.77-5.542-2.643-7.03-5.681-2.974-6.077-1.842-15.224 1.65-24.667 3.083-8.34 8.197-16.652 13.66-23.13a71 71 0 0 1 2.18-2.467c.409-.442.82-.782 1.23-1.2.397-.396.72-.755 1.156-1.165.088-.083.22-.18.31-.264 2.153-2.058 4.308-3.933 6.452-5.518a106 106 0 0 1 3.81-2.85c8.054-5.743 17.685-10.456 23.848-10.534 2.227-.028 4.17.086 5.864.294.17-1.621.203-3.583-.155-5.43-.729-3.77-2.122-7.123-9.771-9.118-2.098-.547-9-1.015-17.195 1.791-5.448 1.866-11.617 5.09-17.911 10.556-10.7 10.228-19.618 23.091-25.37 36.772q-.288.889-.574 1.804c-3.368 10.789-6.143 24.273-3.258 34.352s11.226 17.854 22.545 18.855c11.32 1 26.877-5.2 39.31-15.675s22.068-25.231 27.948-40.065c4.352-10.98 6.656-22.131 7.308-30.88-.016-5.094-.145-9.94-.987-13.466-.937-3.923-2.694-6.601-5.062-8.727-2.006-1.8-4.597-3.234-7.455-4.671-2.45-.943-4.93-1.442-7.323-1.401zm28.23 34.212c-1.108 8.517-3.49 18.167-7.332 27.857-6.305 15.906-16.527 31.681-30.211 43.21-13.685 11.53-30.51 18.806-45.125 17.513-8.832-.78-16.396-4.847-21.82-10.81q.235.615.492 1.211c2.314 4.535 5.095 8.365 8.684 11.101 8.465 6.454 22.912 8.155 38.156 2.677s31.505-18.314 41.936-32.454 15.367-29.878 16.422-42.041c.602-6.945-.017-12.774-1.202-18.264" style="baseline-shift:baseline;display:inline;overflow:visible;opacity:1;vector-effect:none;fill:#fff;stroke-linecap:round;stroke-linejoin:round;stop-color:#000;stop-opacity:1" transform="translate(483.863 -953.465)"/></g></svg>